#tb 0: 1/15
#tb 1: 1/22050
0,          0,          0,        1,   192000, 0x00000000
1,          0,          0,    11024,    22048, 0x0665d7f4
0,          1,          1,        1,   192000, 0x00000000
0,          2,          2,        1,   192000, 0x00000000
0,          3,          3,        1,   192000, 0x00000000
0,          4,          4,        1,   192000, 0xcd900ccc
0,          5,          5,        1,   192000, 0xfd496438
0,          6,          6,        1,   192000, 0x965f0bf3
0,          7,          7,        1,   192000, 0x378fca5f
1,      11024,      11024,     1470,     2940, 0x0f3c64cb
0,          8,          8,        1,   192000, 0x5ccd8966
1,      12494,      12494,     1470,     2940, 0xc90b9e78
0,          9,          9,        1,   192000, 0x859676f9
1,      13964,      13964,     1470,     2940, 0x146246a3
0,         10,         10,        1,   192000, 0x820bfb1c
1,      15434,      15434,     1470,     2940, 0xd22c714e
0,         11,         11,        1,   192000, 0x7570cc05
1,      16904,      16904,     1470,     2940, 0xd86b681e
0,         12,         12,        1,   192000, 0xf38bdb06
1,      18374,      18374,     1470,     2940, 0x12ec8186
0,         13,         13,        1,   192000, 0x9b0cbb44
1,      19844,      19844,     1470,     2940, 0x69aa85b6
0,         14,         14,        1,   192000, 0x0ed70665
1,      21314,      21314,     1470,     2940, 0xb24d33b0
0,         15,         15,        1,   192000, 0xd16de7fc
1,      22784,      22784,     1470,     2940, 0x3f7b0f0d
0,         16,         16,        1,   192000, 0x97afb484
1,      24254,      24254,     1470,     2940, 0x64f10f7e
0,         17,         17,        1,   192000, 0x012893f3
1,      25724,      25724,     1470,     2940, 0xd6ea379a
0,         18,         18,        1,   192000, 0x742a4b43
1,      27194,      27194,     1470,     2940, 0x7c38e830
0,         19,         19,        1,   192000, 0x309dcd75
1,      28664,      28664,     1470,     2940, 0xc28ff132
0,         20,         20,        1,   192000, 0xed7814ac
1,      30134,      30134,     1470,     2940, 0xe7b11629
0,         21,         21,        1,   192000, 0xdb7de3d7
1,      31604,      31604,     1470,     2940, 0xeb86fdcb
0,         22,         22,        1,   192000, 0xe18679a3
1,      33074,      33074,     1470,     2940, 0x5508f586
0,         23,         23,        1,   192000, 0xb1f213f4
1,      34544,      34544,     1470,     2940, 0xf4fa1f1b
0,         24,         24,        1,   192000, 0x33c99b5c
1,      36014,      36014,     1470,     2940, 0x9e5ff976
0,         25,         25,        1,   192000, 0xf66c0c91
1,      37484,      37484,     1470,     2940, 0xcfc4e08f
0,         26,         26,        1,   192000, 0x929cdc73
1,      38954,      38954,     1470,     2940, 0x74bde7ed
0,         27,         27,        1,   192000, 0xa723fc3b
1,      40424,      40424,     1470,     2940, 0x3e4ae245
0,         28,         28,        1,   192000, 0xe6395ccc
1,      41894,      41894,     1470,     2940, 0x4c6a8e56
0,         29,         29,        1,   192000, 0x147fbf74
1,      43364,      43364,     1470,     2940, 0xa09d86ab
0,         30,         30,        1,   192000, 0x3ec62d28
1,      44834,      44834,     1470,     2940, 0xc8531912
0,         31,         31,        1,   192000, 0x22104ffb
1,      46304,      46304,     1470,     2940, 0xa5f266aa
0,         32,         32,        1,   192000, 0x91f25f58
1,      47774,      47774,     1470,     2940, 0x587a4187
0,         33,         33,        1,   192000, 0xc91b0e4e
1,      49244,      49244,     1470,     2940, 0x14752d45
0,         34,         34,        1,   192000, 0x4683df56
1,      50714,      50714,     1470,     2940, 0x558cde10
0,         35,         35,        1,   192000, 0x8ef8932a
1,      52184,      52184,     1470,     2940, 0x735fee38
0,         36,         36,        1,   192000, 0xce6c0ec0
1,      53654,      53654,     1470,     2940, 0xac8bb6c8
0,         37,         37,        1,   192000, 0xcc10e2a0
1,      55124,      55124,     1470,     2940, 0xa503c73b
1,      56594,      56594,     1470,     2940, 0x7cd588a3
1,      58064,      58064,     1470,     2940, 0xa6974b04
1,      59534,      59534,     1470,     2940, 0xbf448241
1,      61004,      61004,     1470,     2940, 0x2a5c2759
1,      62474,      62474,     1470,     2940, 0xd0de5ce0
1,      63944,      63944,     1470,     2940, 0xc0486649
1,      65414,      65414,     1470,     2940, 0x48b040af
1,      66884,      66884,     1470,     2940, 0x82a338a9
